<?xml version="1.0" encoding="UTF-8" standalone="no"?><!DOCTYPE svg PUBLIC "-//W3C//DTD SVG 1.1//EN" "http://www.w3.org/Graphics/SVG/1.1/DTD/svg11.dtd"><svg width="800px" height="800px" version="1.1" xmlns="http://www.w3.org/2000/svg" xmlns:xlink="http://www.w3.org/1999/xlink" xml:space="preserve" xmlns:serif="http://www.serif.com/" style="fill-rule:evenodd;clip-rule:evenodd;stroke-linejoin:round;stroke-miterlimit:1.41421;"><g><g><g><path d="M267.628,501.173l30.378,0l24.769,-72.291l40.426,0l0,72.291l28.742,0l0,-175.894l-69.168,0c-19.239,0 -33.376,4.79 -42.412,14.368c-9.035,9.579 -13.553,21.971 -13.553,37.176c0,22.594 9.581,38.143 28.742,46.647l-27.924,77.703Zm95.573,-97.676l-35.752,0c-10.36,0 -18.071,-2.405 -23.134,-7.216c-5.063,-4.811 -7.595,-11.426 -7.595,-19.844c0,-7.732 2.493,-13.982 7.478,-18.75c4.985,-4.767 11.956,-7.151 20.914,-7.151l38.089,0l0,52.961Z" style="fill:#ffa500;fill-rule:nonzero;"/><path d="M532.372,501.173l-30.378,0l-24.769,-72.291l-40.426,0l0,72.291l-28.742,0l0,-175.894l69.168,0c19.239,0 33.376,4.79 42.412,14.368c9.035,9.579 13.553,21.971 13.553,37.176c0,22.594 -9.581,38.143 -28.742,46.647l27.924,77.703Zm-95.573,-97.676l35.752,0c10.36,0 18.071,-2.405 23.134,-7.216c5.063,-4.811 7.595,-11.426 7.595,-19.844c0,-7.732 -2.493,-13.982 -7.478,-18.75c-4.985,-4.767 -11.956,-7.151 -20.914,-7.151l-38.089,0l0,52.961Z" style="fill:#ffa500;fill-rule:nonzero;"/></g><path d="M315.441,240.254l10.542,32.446l34.117,0l-27.601,20.053l10.542,32.446l-27.6,-20.053l-27.601,20.053l10.543,-32.446l-27.601,-20.053l34.116,0l10.543,-32.446Z" style="fill:#ffa500;"/><path d="M233.425,240.254l10.543,32.446l34.116,0l-27.601,20.053l10.543,32.446l-27.601,-20.053l-27.6,20.053l10.542,-32.446l-27.6,-20.053l34.116,0l10.542,-32.446Z" style="fill:#ffa500;"/><path d="M485.157,240.254l10.542,32.446l34.117,0l-27.601,20.053l10.542,32.446l-27.6,-20.053l-27.601,20.053l10.543,-32.446l-27.601,-20.053l34.116,0l10.543,-32.446Z" style="fill:#ffa500;"/><path d="M569.953,240.254l10.542,32.446l34.116,0l-27.6,20.053l10.542,32.446l-27.6,-20.053l-27.601,20.053l10.543,-32.446l-27.601,-20.053l34.116,0l10.543,-32.446Z" style="fill:#ffa500;"/><path d="M399.813,240.254l10.542,32.446l34.117,0l-27.601,20.053l10.543,32.446l-27.601,-20.053l-27.601,20.053l10.543,-32.446l-27.601,-20.053l34.117,0l10.542,-32.446Z" style="fill:#ffa500;"/></g><text x="160.056px" y="540.826px" style="font-family:'FranklinGothic-Medium', 'Franklin Gothic Medium', sans-serif;font-size:50.328px;">No image a<tspan x="406.905px 428.654px 455.858px " y="540.826px 540.826px 540.826px ">vai</tspan>labe y<tspan x="595.292px 621.39px " y="540.826px 540.826px ">et</tspan></text></g></svg>